<mxfile host="app.diagrams.net" agent="Mozilla/5.0 (Macintosh; Intel Mac OS X 10_15_7) AppleWebKit/537.36 (KHTML, like Gecko) Chrome/139.0.0.0 Safari/537.36" version="28.1.2">
  <diagram name="Page-1" id="YGfvL4IPu3p9E9iMMtfk">
    <mxGraphModel dx="3222" dy="2864" grid="1" gridSize="10" guides="1" tooltips="1" connect="1" arrows="1" fold="1" page="1" pageScale="1" pageWidth="850" pageHeight="1100" math="0" shadow="0">
      <root>
        <mxCell id="0" />
        <mxCell id="1" parent="0" />
        <mxCell id="uki9wUaxL7BUHYGqPedC-1" value="" style="strokeWidth=2;html=1;shape=mxgraph.flowchart.start_2;whiteSpace=wrap;" parent="1" vertex="1">
          <mxGeometry x="219.5" y="466" width="370" height="390" as="geometry" />
        </mxCell>
        <mxCell id="uki9wUaxL7BUHYGqPedC-2" value="" style="edgeStyle=none;html=1;" parent="1" source="uki9wUaxL7BUHYGqPedC-3" target="uki9wUaxL7BUHYGqPedC-9" edge="1">
          <mxGeometry relative="1" as="geometry">
            <mxPoint x="240" y="235" as="targetPoint" />
          </mxGeometry>
        </mxCell>
        <mxCell id="uki9wUaxL7BUHYGqPedC-3" value="Cell Mapping" style="strokeWidth=2;html=1;shape=mxgraph.flowchart.database;whiteSpace=wrap;" parent="1" vertex="1">
          <mxGeometry x="110" y="181" width="60" height="90" as="geometry" />
        </mxCell>
        <mxCell id="uki9wUaxL7BUHYGqPedC-4" style="edgeStyle=none;html=1;entryX=0.5;entryY=0;entryDx=0;entryDy=0;entryPerimeter=0;" parent="1" source="uki9wUaxL7BUHYGqPedC-5" target="uki9wUaxL7BUHYGqPedC-9" edge="1">
          <mxGeometry relative="1" as="geometry" />
        </mxCell>
        <mxCell id="uki9wUaxL7BUHYGqPedC-5" value="Customers" style="aspect=fixed;html=1;points=[];align=center;image;fontSize=12;image=img/lib/azure2/management_governance/My_Customers.svg;" parent="1" vertex="1">
          <mxGeometry x="375" y="30" width="61.61" height="50" as="geometry" />
        </mxCell>
        <mxCell id="uki9wUaxL7BUHYGqPedC-6" style="edgeStyle=none;html=1;entryX=0.5;entryY=0;entryDx=0;entryDy=0;entryPerimeter=0;" parent="1" source="uki9wUaxL7BUHYGqPedC-9" target="uki9wUaxL7BUHYGqPedC-10" edge="1">
          <mxGeometry relative="1" as="geometry" />
        </mxCell>
        <mxCell id="uki9wUaxL7BUHYGqPedC-7" style="edgeStyle=none;html=1;exitX=0.145;exitY=0.855;exitDx=0;exitDy=0;exitPerimeter=0;entryX=0.5;entryY=0;entryDx=0;entryDy=0;entryPerimeter=0;" parent="1" source="uki9wUaxL7BUHYGqPedC-9" target="uki9wUaxL7BUHYGqPedC-20" edge="1">
          <mxGeometry relative="1" as="geometry" />
        </mxCell>
        <mxCell id="uki9wUaxL7BUHYGqPedC-8" style="edgeStyle=none;html=1;exitX=0.855;exitY=0.855;exitDx=0;exitDy=0;exitPerimeter=0;entryX=0.5;entryY=0;entryDx=0;entryDy=0;entryPerimeter=0;" parent="1" source="uki9wUaxL7BUHYGqPedC-9" target="uki9wUaxL7BUHYGqPedC-15" edge="1">
          <mxGeometry relative="1" as="geometry" />
        </mxCell>
        <mxCell id="uki9wUaxL7BUHYGqPedC-9" value="Cell Router&lt;br&gt;" style="outlineConnect=0;dashed=0;verticalLabelPosition=bottom;verticalAlign=top;align=center;html=1;shape=mxgraph.aws3.customer_gateway;fillColor=#F58534;gradientColor=none;" parent="1" vertex="1">
          <mxGeometry x="370" y="190" width="69" height="72" as="geometry" />
        </mxCell>
        <mxCell id="uki9wUaxL7BUHYGqPedC-10" value="Cell Gateway" style="outlineConnect=0;dashed=0;verticalLabelPosition=bottom;verticalAlign=top;align=center;html=1;shape=mxgraph.aws3.customer_gateway;fillColor=#F58534;gradientColor=none;" parent="1" vertex="1">
          <mxGeometry x="370" y="430" width="69" height="72" as="geometry" />
        </mxCell>
        <mxCell id="uki9wUaxL7BUHYGqPedC-11" value="Load Balancers" style="outlineConnect=0;dashed=0;verticalLabelPosition=bottom;verticalAlign=top;align=center;html=1;shape=mxgraph.aws3.classic_load_balancer;fillColor=#F58534;gradientColor=none;" parent="1" vertex="1">
          <mxGeometry x="360" y="564" width="69" height="72" as="geometry" />
        </mxCell>
        <mxCell id="uki9wUaxL7BUHYGqPedC-12" value="Servers&lt;br&gt;" style="aspect=fixed;perimeter=ellipsePerimeter;html=1;align=center;shadow=0;dashed=0;spacingTop=3;image;image=img/lib/active_directory/server_farm.svg;" parent="1" vertex="1">
          <mxGeometry x="280" y="676" width="70" height="70" as="geometry" />
        </mxCell>
        <mxCell id="uki9wUaxL7BUHYGqPedC-13" value="Database" style="image;html=1;image=img/lib/clip_art/computers/Database_128x128.png" parent="1" vertex="1">
          <mxGeometry x="420" y="696" width="80" height="60" as="geometry" />
        </mxCell>
        <mxCell id="uki9wUaxL7BUHYGqPedC-14" value="" style="strokeWidth=2;html=1;shape=mxgraph.flowchart.start_2;whiteSpace=wrap;" parent="1" vertex="1">
          <mxGeometry x="660" y="466" width="370" height="390" as="geometry" />
        </mxCell>
        <mxCell id="uki9wUaxL7BUHYGqPedC-15" value="Cell Gateway" style="outlineConnect=0;dashed=0;verticalLabelPosition=bottom;verticalAlign=top;align=center;html=1;shape=mxgraph.aws3.customer_gateway;fillColor=#F58534;gradientColor=none;" parent="1" vertex="1">
          <mxGeometry x="810.5" y="434" width="69" height="72" as="geometry" />
        </mxCell>
        <mxCell id="uki9wUaxL7BUHYGqPedC-16" value="Load Balancers" style="outlineConnect=0;dashed=0;verticalLabelPosition=bottom;verticalAlign=top;align=center;html=1;shape=mxgraph.aws3.classic_load_balancer;fillColor=#F58534;gradientColor=none;" parent="1" vertex="1">
          <mxGeometry x="800.5" y="568" width="69" height="72" as="geometry" />
        </mxCell>
        <mxCell id="uki9wUaxL7BUHYGqPedC-17" value="Servers&lt;br&gt;" style="aspect=fixed;perimeter=ellipsePerimeter;html=1;align=center;shadow=0;dashed=0;spacingTop=3;image;image=img/lib/active_directory/server_farm.svg;" parent="1" vertex="1">
          <mxGeometry x="720.5" y="680" width="70" height="70" as="geometry" />
        </mxCell>
        <mxCell id="uki9wUaxL7BUHYGqPedC-18" value="Database" style="image;html=1;image=img/lib/clip_art/computers/Database_128x128.png" parent="1" vertex="1">
          <mxGeometry x="860.5" y="700" width="80" height="60" as="geometry" />
        </mxCell>
        <mxCell id="uki9wUaxL7BUHYGqPedC-19" value="" style="strokeWidth=2;html=1;shape=mxgraph.flowchart.start_2;whiteSpace=wrap;" parent="1" vertex="1">
          <mxGeometry x="-210" y="476" width="370" height="390" as="geometry" />
        </mxCell>
        <mxCell id="uki9wUaxL7BUHYGqPedC-20" value="Cell Gateway" style="outlineConnect=0;dashed=0;verticalLabelPosition=bottom;verticalAlign=top;align=center;html=1;shape=mxgraph.aws3.customer_gateway;fillColor=#F58534;gradientColor=none;" parent="1" vertex="1">
          <mxGeometry x="-59.5" y="440" width="69" height="72" as="geometry" />
        </mxCell>
        <mxCell id="uki9wUaxL7BUHYGqPedC-21" value="Load Balancers" style="outlineConnect=0;dashed=0;verticalLabelPosition=bottom;verticalAlign=top;align=center;html=1;shape=mxgraph.aws3.classic_load_balancer;fillColor=#F58534;gradientColor=none;" parent="1" vertex="1">
          <mxGeometry x="-69.5" y="574" width="69" height="72" as="geometry" />
        </mxCell>
        <mxCell id="uki9wUaxL7BUHYGqPedC-22" value="Servers&lt;br&gt;" style="aspect=fixed;perimeter=ellipsePerimeter;html=1;align=center;shadow=0;dashed=0;spacingTop=3;image;image=img/lib/active_directory/server_farm.svg;" parent="1" vertex="1">
          <mxGeometry x="-149.5" y="686" width="70" height="70" as="geometry" />
        </mxCell>
        <mxCell id="uki9wUaxL7BUHYGqPedC-23" value="Database" style="image;html=1;image=img/lib/clip_art/computers/Database_128x128.png" parent="1" vertex="1">
          <mxGeometry x="-9.5" y="706" width="80" height="60" as="geometry" />
        </mxCell>
        <mxCell id="Zh4O3iviIswpcKdQZgxh-1" style="edgeStyle=none;html=1;exitX=0.938;exitY=0.75;exitDx=0;exitDy=0;exitPerimeter=0;startArrow=none;" parent="1" source="Zh4O3iviIswpcKdQZgxh-34" target="Zh4O3iviIswpcKdQZgxh-8" edge="1">
          <mxGeometry relative="1" as="geometry" />
        </mxCell>
        <mxCell id="Zh4O3iviIswpcKdQZgxh-2" style="edgeStyle=none;html=1;entryX=0.5;entryY=1;entryDx=0;entryDy=0;entryPerimeter=0;startArrow=none;" parent="1" source="Zh4O3iviIswpcKdQZgxh-78" target="Zh4O3iviIswpcKdQZgxh-18" edge="1">
          <mxGeometry relative="1" as="geometry">
            <Array as="points" />
          </mxGeometry>
        </mxCell>
        <mxCell id="Zh4O3iviIswpcKdQZgxh-3" style="edgeStyle=none;html=1;" parent="1" source="Zh4O3iviIswpcKdQZgxh-4" edge="1">
          <mxGeometry relative="1" as="geometry">
            <mxPoint x="-200" y="-80" as="targetPoint" />
          </mxGeometry>
        </mxCell>
        <mxCell id="Zh4O3iviIswpcKdQZgxh-4" value="users" style="aspect=fixed;html=1;points=[];align=center;image;fontSize=12;image=img/lib/azure2/identity/Users.svg;" parent="1" vertex="1">
          <mxGeometry x="-240" y="287.5" width="64" height="70" as="geometry" />
        </mxCell>
        <mxCell id="Zh4O3iviIswpcKdQZgxh-5" style="edgeStyle=none;html=1;entryX=0;entryY=0.5;entryDx=0;entryDy=0;" parent="1" source="Zh4O3iviIswpcKdQZgxh-8" target="Zh4O3iviIswpcKdQZgxh-14" edge="1">
          <mxGeometry relative="1" as="geometry">
            <mxPoint x="620" y="532" as="targetPoint" />
            <Array as="points">
              <mxPoint x="430" y="532" />
            </Array>
          </mxGeometry>
        </mxCell>
        <mxCell id="Zh4O3iviIswpcKdQZgxh-6" style="edgeStyle=none;html=1;startArrow=none;" parent="1" source="Zh4O3iviIswpcKdQZgxh-76" edge="1">
          <mxGeometry relative="1" as="geometry">
            <mxPoint x="670" y="325.840909090909" as="targetPoint" />
          </mxGeometry>
        </mxCell>
        <mxCell id="Zh4O3iviIswpcKdQZgxh-7" style="edgeStyle=none;html=1;entryX=0.5;entryY=1;entryDx=0;entryDy=0;entryPerimeter=0;" parent="1" source="Zh4O3iviIswpcKdQZgxh-8" target="Zh4O3iviIswpcKdQZgxh-21" edge="1">
          <mxGeometry relative="1" as="geometry" />
        </mxCell>
        <mxCell id="Zh4O3iviIswpcKdQZgxh-8" value="Search Sevices" style="aspect=fixed;html=1;points=[];align=center;image;fontSize=12;image=img/lib/azure2/general/Search.svg;" parent="1" vertex="1">
          <mxGeometry x="130" y="410" width="64" height="65" as="geometry" />
        </mxCell>
        <mxCell id="Zh4O3iviIswpcKdQZgxh-9" value="" style="edgeStyle=none;html=1;" parent="1" target="Zh4O3iviIswpcKdQZgxh-11" edge="1">
          <mxGeometry relative="1" as="geometry">
            <mxPoint x="700" y="300" as="sourcePoint" />
          </mxGeometry>
        </mxCell>
        <mxCell id="Zh4O3iviIswpcKdQZgxh-10" style="edgeStyle=none;html=1;" parent="1" source="Zh4O3iviIswpcKdQZgxh-11" target="Zh4O3iviIswpcKdQZgxh-15" edge="1">
          <mxGeometry relative="1" as="geometry" />
        </mxCell>
        <mxCell id="Zh4O3iviIswpcKdQZgxh-11" value="Generate &lt;br&gt;Recommendation batch jobs&amp;nbsp;" style="rounded=1;align=center;fillColor=#F1F2F4;strokeColor=none;html=1;fontColor=#596780;fontSize=12" parent="1" vertex="1">
          <mxGeometry x="620" y="170" width="170" height="50" as="geometry" />
        </mxCell>
        <mxCell id="Zh4O3iviIswpcKdQZgxh-12" value="Search History Database" style="image;html=1;image=img/lib/clip_art/computers/Database_128x128.png" parent="1" vertex="1">
          <mxGeometry x="660" y="300" width="80" height="80" as="geometry" />
        </mxCell>
        <mxCell id="Zh4O3iviIswpcKdQZgxh-13" style="edgeStyle=none;html=1;entryX=0.865;entryY=1.01;entryDx=0;entryDy=0;entryPerimeter=0;" parent="1" source="Zh4O3iviIswpcKdQZgxh-14" target="Zh4O3iviIswpcKdQZgxh-11" edge="1">
          <mxGeometry relative="1" as="geometry">
            <mxPoint x="770" y="230" as="targetPoint" />
          </mxGeometry>
        </mxCell>
        <mxCell id="Zh4O3iviIswpcKdQZgxh-14" value="Product Database" style="image;html=1;image=img/lib/clip_art/computers/Database_128x128.png" parent="1" vertex="1">
          <mxGeometry x="730" y="490" width="80" height="80" as="geometry" />
        </mxCell>
        <mxCell id="Zh4O3iviIswpcKdQZgxh-15" value="&amp;nbsp;Recommendation DB&lt;br&gt;" style="image;html=1;image=img/lib/clip_art/computers/Database_128x128.png" parent="1" vertex="1">
          <mxGeometry x="440" y="155" width="80" height="80" as="geometry" />
        </mxCell>
        <mxCell id="Zh4O3iviIswpcKdQZgxh-16" value="" style="edgeStyle=none;html=1;startArrow=none;" parent="1" source="Zh4O3iviIswpcKdQZgxh-74" target="Zh4O3iviIswpcKdQZgxh-15" edge="1">
          <mxGeometry relative="1" as="geometry" />
        </mxCell>
        <mxCell id="Zh4O3iviIswpcKdQZgxh-17" style="edgeStyle=none;html=1;" parent="1" source="Zh4O3iviIswpcKdQZgxh-18" target="Zh4O3iviIswpcKdQZgxh-21" edge="1">
          <mxGeometry relative="1" as="geometry">
            <Array as="points">
              <mxPoint x="320" y="120" />
            </Array>
          </mxGeometry>
        </mxCell>
        <mxCell id="Zh4O3iviIswpcKdQZgxh-18" value="Get Recommendation&lt;br&gt;Services" style="html=1;strokeColor=none;fillColor=#0079D6;labelPosition=center;verticalLabelPosition=middle;verticalAlign=top;align=center;fontSize=12;outlineConnect=0;spacingTop=-6;fontColor=#FFFFFF;sketch=0;shape=mxgraph.sitemap.services;" parent="1" vertex="1">
          <mxGeometry x="-50" y="130" width="120" height="70" as="geometry" />
        </mxCell>
        <mxCell id="Zh4O3iviIswpcKdQZgxh-19" style="edgeStyle=none;html=1;" parent="1" source="Zh4O3iviIswpcKdQZgxh-21" target="Zh4O3iviIswpcKdQZgxh-22" edge="1">
          <mxGeometry relative="1" as="geometry" />
        </mxCell>
        <mxCell id="Zh4O3iviIswpcKdQZgxh-20" value="" style="edgeStyle=none;html=1;" parent="1" source="Zh4O3iviIswpcKdQZgxh-21" target="Zh4O3iviIswpcKdQZgxh-24" edge="1">
          <mxGeometry relative="1" as="geometry" />
        </mxCell>
        <mxCell id="Zh4O3iviIswpcKdQZgxh-21" value="AddToCart Service" style="html=1;strokeColor=none;fillColor=#0079D6;labelPosition=center;verticalLabelPosition=middle;verticalAlign=top;align=center;fontSize=12;outlineConnect=0;spacingTop=-6;fontColor=#FFFFFF;sketch=0;shape=mxgraph.sitemap.services;" parent="1" vertex="1">
          <mxGeometry x="365" y="20" width="120" height="70" as="geometry" />
        </mxCell>
        <mxCell id="Zh4O3iviIswpcKdQZgxh-22" value="Cart DB" style="image;html=1;image=img/lib/clip_art/computers/Database_128x128.png" parent="1" vertex="1">
          <mxGeometry x="385" y="-120" width="80" height="80" as="geometry" />
        </mxCell>
        <mxCell id="Zh4O3iviIswpcKdQZgxh-23" value="" style="edgeStyle=none;html=1;" parent="1" source="Zh4O3iviIswpcKdQZgxh-24" target="Zh4O3iviIswpcKdQZgxh-25" edge="1">
          <mxGeometry relative="1" as="geometry" />
        </mxCell>
        <mxCell id="Zh4O3iviIswpcKdQZgxh-24" value="PlaceOrder Service" style="html=1;strokeColor=none;fillColor=#0079D6;labelPosition=center;verticalLabelPosition=middle;verticalAlign=top;align=center;fontSize=12;outlineConnect=0;spacingTop=-6;fontColor=#FFFFFF;sketch=0;shape=mxgraph.sitemap.services;" parent="1" vertex="1">
          <mxGeometry x="600" y="20" width="120" height="70" as="geometry" />
        </mxCell>
        <mxCell id="Zh4O3iviIswpcKdQZgxh-25" value="Order DB" style="image;html=1;image=img/lib/clip_art/computers/Database_128x128.png" parent="1" vertex="1">
          <mxGeometry x="620" y="-180" width="80" height="80" as="geometry" />
        </mxCell>
        <mxCell id="Zh4O3iviIswpcKdQZgxh-26" style="edgeStyle=none;html=1;entryX=0;entryY=0.5;entryDx=0;entryDy=0;" parent="1" source="Zh4O3iviIswpcKdQZgxh-28" target="Zh4O3iviIswpcKdQZgxh-25" edge="1">
          <mxGeometry relative="1" as="geometry" />
        </mxCell>
        <mxCell id="Zh4O3iviIswpcKdQZgxh-27" style="edgeStyle=none;html=1;entryX=0.938;entryY=0.036;entryDx=0;entryDy=0;entryPerimeter=0;" parent="1" source="Zh4O3iviIswpcKdQZgxh-28" target="Zh4O3iviIswpcKdQZgxh-4" edge="1">
          <mxGeometry relative="1" as="geometry">
            <Array as="points">
              <mxPoint x="200" y="280" />
            </Array>
          </mxGeometry>
        </mxCell>
        <mxCell id="Zh4O3iviIswpcKdQZgxh-28" value="OrderStatus Service" style="html=1;strokeColor=none;fillColor=#0079D6;labelPosition=center;verticalLabelPosition=middle;verticalAlign=top;align=center;fontSize=12;outlineConnect=0;spacingTop=-6;fontColor=#FFFFFF;sketch=0;shape=mxgraph.sitemap.services;" parent="1" vertex="1">
          <mxGeometry x="130" y="-170" width="120" height="70" as="geometry" />
        </mxCell>
        <mxCell id="Zh4O3iviIswpcKdQZgxh-29" value="ProductReview Service" style="html=1;strokeColor=none;fillColor=#0079D6;labelPosition=center;verticalLabelPosition=middle;verticalAlign=top;align=center;fontSize=12;outlineConnect=0;spacingTop=-6;fontColor=#FFFFFF;sketch=0;shape=mxgraph.sitemap.services;" parent="1" vertex="1">
          <mxGeometry x="-260" y="-160" width="120" height="70" as="geometry" />
        </mxCell>
        <mxCell id="Zh4O3iviIswpcKdQZgxh-30" style="edgeStyle=none;html=1;entryX=0.75;entryY=0;entryDx=0;entryDy=0;entryPerimeter=0;startArrow=none;" parent="1" source="Zh4O3iviIswpcKdQZgxh-81" target="Zh4O3iviIswpcKdQZgxh-18" edge="1">
          <mxGeometry relative="1" as="geometry" />
        </mxCell>
        <mxCell id="Zh4O3iviIswpcKdQZgxh-31" style="edgeStyle=none;html=1;entryX=0.68;entryY=-0.085;entryDx=0;entryDy=0;entryPerimeter=0;" parent="1" source="Zh4O3iviIswpcKdQZgxh-32" target="Zh4O3iviIswpcKdQZgxh-8" edge="1">
          <mxGeometry relative="1" as="geometry" />
        </mxCell>
        <mxCell id="Zh4O3iviIswpcKdQZgxh-32" value="Product Review DB" style="image;html=1;image=img/lib/clip_art/computers/Database_128x128.png" parent="1" vertex="1">
          <mxGeometry x="10" y="-310" width="60" height="80" as="geometry" />
        </mxCell>
        <mxCell id="Zh4O3iviIswpcKdQZgxh-33" value="" style="edgeStyle=none;html=1;exitX=0.938;exitY=0.75;exitDx=0;exitDy=0;exitPerimeter=0;endArrow=none;" parent="1" source="Zh4O3iviIswpcKdQZgxh-4" target="Zh4O3iviIswpcKdQZgxh-34" edge="1">
          <mxGeometry relative="1" as="geometry">
            <mxPoint x="-179.96800000000007" y="340" as="sourcePoint" />
            <mxPoint x="130" y="432.90845927104283" as="targetPoint" />
          </mxGeometry>
        </mxCell>
        <mxCell id="Zh4O3iviIswpcKdQZgxh-34" value="" style="outlineConnect=0;dashed=0;verticalLabelPosition=bottom;verticalAlign=top;align=center;html=1;shape=mxgraph.aws3.classic_load_balancer;fillColor=#F58534;gradientColor=none;" parent="1" vertex="1">
          <mxGeometry x="-160" y="320" width="69" height="72" as="geometry" />
        </mxCell>
        <mxCell id="Zh4O3iviIswpcKdQZgxh-35" value="" style="outlineConnect=0;dashed=0;verticalLabelPosition=bottom;verticalAlign=top;align=center;html=1;shape=mxgraph.aws3.classic_load_balancer;fillColor=#F58534;gradientColor=none;" parent="1" vertex="1">
          <mxGeometry x="-150" y="280" width="69" height="72" as="geometry" />
        </mxCell>
        <mxCell id="Zh4O3iviIswpcKdQZgxh-36" value="Search Sevices" style="aspect=fixed;html=1;points=[];align=center;image;fontSize=12;image=img/lib/azure2/general/Search.svg;" parent="1" vertex="1">
          <mxGeometry x="140" y="420" width="64" height="65" as="geometry" />
        </mxCell>
        <mxCell id="Zh4O3iviIswpcKdQZgxh-37" value="Search Sevices" style="aspect=fixed;html=1;points=[];align=center;image;fontSize=12;image=img/lib/azure2/general/Search.svg;" parent="1" vertex="1">
          <mxGeometry x="150" y="430" width="64" height="65" as="geometry" />
        </mxCell>
        <mxCell id="Zh4O3iviIswpcKdQZgxh-38" value="Get Recommendation&lt;br&gt;Services" style="html=1;strokeColor=none;fillColor=#0079D6;labelPosition=center;verticalLabelPosition=middle;verticalAlign=top;align=center;fontSize=12;outlineConnect=0;spacingTop=-6;fontColor=#FFFFFF;sketch=0;shape=mxgraph.sitemap.services;" parent="1" vertex="1">
          <mxGeometry x="-40" y="140" width="120" height="70" as="geometry" />
        </mxCell>
        <mxCell id="Zh4O3iviIswpcKdQZgxh-39" value="Get Recommendation&lt;br&gt;Services" style="html=1;strokeColor=none;fillColor=#0079D6;labelPosition=center;verticalLabelPosition=middle;verticalAlign=top;align=center;fontSize=12;outlineConnect=0;spacingTop=-6;fontColor=#FFFFFF;sketch=0;shape=mxgraph.sitemap.services;" parent="1" vertex="1">
          <mxGeometry x="-30" y="150" width="120" height="70" as="geometry" />
        </mxCell>
        <mxCell id="Zh4O3iviIswpcKdQZgxh-40" style="edgeStyle=none;html=1;entryX=0;entryY=0.5;entryDx=0;entryDy=0;" parent="1" source="Zh4O3iviIswpcKdQZgxh-41" target="Zh4O3iviIswpcKdQZgxh-32" edge="1">
          <mxGeometry relative="1" as="geometry">
            <Array as="points">
              <mxPoint x="-210" y="-270" />
            </Array>
          </mxGeometry>
        </mxCell>
        <mxCell id="Zh4O3iviIswpcKdQZgxh-41" value="ProductReview Service" style="html=1;strokeColor=none;fillColor=#0079D6;labelPosition=center;verticalLabelPosition=middle;verticalAlign=top;align=center;fontSize=12;outlineConnect=0;spacingTop=-6;fontColor=#FFFFFF;sketch=0;shape=mxgraph.sitemap.services;" parent="1" vertex="1">
          <mxGeometry x="-250" y="-150" width="120" height="70" as="geometry" />
        </mxCell>
        <mxCell id="Zh4O3iviIswpcKdQZgxh-42" value="ProductReview Service" style="html=1;strokeColor=none;fillColor=#0079D6;labelPosition=center;verticalLabelPosition=middle;verticalAlign=top;align=center;fontSize=12;outlineConnect=0;spacingTop=-6;fontColor=#FFFFFF;sketch=0;shape=mxgraph.sitemap.services;" parent="1" vertex="1">
          <mxGeometry x="-240" y="-140" width="120" height="70" as="geometry" />
        </mxCell>
        <mxCell id="Zh4O3iviIswpcKdQZgxh-43" value="OrderStatus Service" style="html=1;strokeColor=none;fillColor=#0079D6;labelPosition=center;verticalLabelPosition=middle;verticalAlign=top;align=center;fontSize=12;outlineConnect=0;spacingTop=-6;fontColor=#FFFFFF;sketch=0;shape=mxgraph.sitemap.services;" parent="1" vertex="1">
          <mxGeometry x="140" y="-160" width="120" height="70" as="geometry" />
        </mxCell>
        <mxCell id="Zh4O3iviIswpcKdQZgxh-44" value="OrderStatus Service" style="html=1;strokeColor=none;fillColor=#0079D6;labelPosition=center;verticalLabelPosition=middle;verticalAlign=top;align=center;fontSize=12;outlineConnect=0;spacingTop=-6;fontColor=#FFFFFF;sketch=0;shape=mxgraph.sitemap.services;" parent="1" vertex="1">
          <mxGeometry x="150" y="-150" width="120" height="70" as="geometry" />
        </mxCell>
        <mxCell id="Zh4O3iviIswpcKdQZgxh-45" value="AddToCart Service" style="html=1;strokeColor=none;fillColor=#0079D6;labelPosition=center;verticalLabelPosition=middle;verticalAlign=top;align=center;fontSize=12;outlineConnect=0;spacingTop=-6;fontColor=#FFFFFF;sketch=0;shape=mxgraph.sitemap.services;" parent="1" vertex="1">
          <mxGeometry x="375" y="30" width="120" height="70" as="geometry" />
        </mxCell>
        <mxCell id="Zh4O3iviIswpcKdQZgxh-46" value="AddToCart Service" style="html=1;strokeColor=none;fillColor=#0079D6;labelPosition=center;verticalLabelPosition=middle;verticalAlign=top;align=center;fontSize=12;outlineConnect=0;spacingTop=-6;fontColor=#FFFFFF;sketch=0;shape=mxgraph.sitemap.services;" parent="1" vertex="1">
          <mxGeometry x="385" y="40" width="120" height="70" as="geometry" />
        </mxCell>
        <mxCell id="Zh4O3iviIswpcKdQZgxh-47" value="PlaceOrder Service" style="html=1;strokeColor=none;fillColor=#0079D6;labelPosition=center;verticalLabelPosition=middle;verticalAlign=top;align=center;fontSize=12;outlineConnect=0;spacingTop=-6;fontColor=#FFFFFF;sketch=0;shape=mxgraph.sitemap.services;" parent="1" vertex="1">
          <mxGeometry x="610" y="30" width="120" height="70" as="geometry" />
        </mxCell>
        <mxCell id="Zh4O3iviIswpcKdQZgxh-48" style="edgeStyle=none;html=1;entryX=0.083;entryY=0.643;entryDx=0;entryDy=0;entryPerimeter=0;" parent="1" source="Zh4O3iviIswpcKdQZgxh-49" edge="1">
          <mxGeometry relative="1" as="geometry">
            <mxPoint x="879.96" y="75.00999999999999" as="targetPoint" />
          </mxGeometry>
        </mxCell>
        <mxCell id="Zh4O3iviIswpcKdQZgxh-49" value="PlaceOrder Service" style="html=1;strokeColor=none;fillColor=#0079D6;labelPosition=center;verticalLabelPosition=middle;verticalAlign=top;align=center;fontSize=12;outlineConnect=0;spacingTop=-6;fontColor=#FFFFFF;sketch=0;shape=mxgraph.sitemap.services;" parent="1" vertex="1">
          <mxGeometry x="620" y="40" width="120" height="70" as="geometry" />
        </mxCell>
        <mxCell id="Zh4O3iviIswpcKdQZgxh-50" value="Generate &lt;br&gt;Recommendation batch jobs&amp;nbsp;" style="rounded=1;align=center;fillColor=#F1F2F4;strokeColor=none;html=1;fontColor=#596780;fontSize=12" parent="1" vertex="1">
          <mxGeometry x="630" y="180" width="170" height="50" as="geometry" />
        </mxCell>
        <mxCell id="Zh4O3iviIswpcKdQZgxh-51" value="Generate &lt;br&gt;Recommendation batch jobs&amp;nbsp;" style="rounded=1;align=center;fillColor=#F1F2F4;strokeColor=none;html=1;fontColor=#596780;fontSize=12" parent="1" vertex="1">
          <mxGeometry x="640" y="190" width="170" height="50" as="geometry" />
        </mxCell>
        <mxCell id="Zh4O3iviIswpcKdQZgxh-52" value="&lt;br&gt;&amp;nbsp;Elasticsearch Service" style="sketch=0;outlineConnect=0;fontColor=#232F3E;gradientColor=none;strokeColor=#ffffff;fillColor=#232F3E;dashed=0;verticalLabelPosition=middle;verticalAlign=bottom;align=center;html=1;whiteSpace=wrap;fontSize=10;fontStyle=1;spacing=3;shape=mxgraph.aws4.productIcon;prIcon=mxgraph.aws4.elasticsearch_service;" parent="1" vertex="1">
          <mxGeometry x="520" y="485" width="80" height="120" as="geometry" />
        </mxCell>
        <mxCell id="Zh4O3iviIswpcKdQZgxh-53" value="Product Database" style="image;html=1;image=img/lib/clip_art/computers/Database_128x128.png" parent="1" vertex="1">
          <mxGeometry x="870" y="510" width="80" height="80" as="geometry" />
        </mxCell>
        <mxCell id="Zh4O3iviIswpcKdQZgxh-54" value="Slave&lt;br&gt;&lt;br&gt;Will handle all the read replicas&lt;br&gt;" style="image;html=1;image=img/lib/clip_art/computers/Database_128x128.png" parent="1" vertex="1">
          <mxGeometry x="890" y="525" width="80" height="80" as="geometry" />
        </mxCell>
        <mxCell id="Zh4O3iviIswpcKdQZgxh-55" value="MAster&lt;br&gt;&lt;br&gt;Will handle Write" style="image;html=1;image=img/lib/clip_art/computers/Database_128x128.png" parent="1" vertex="1">
          <mxGeometry x="740" y="500" width="80" height="80" as="geometry" />
        </mxCell>
        <mxCell id="Zh4O3iviIswpcKdQZgxh-56" style="edgeStyle=none;html=1;" parent="1" source="Zh4O3iviIswpcKdQZgxh-57" edge="1">
          <mxGeometry relative="1" as="geometry">
            <mxPoint x="890" y="350" as="targetPoint" />
          </mxGeometry>
        </mxCell>
        <mxCell id="Zh4O3iviIswpcKdQZgxh-57" value="Search History Database" style="image;html=1;image=img/lib/clip_art/computers/Database_128x128.png" parent="1" vertex="1">
          <mxGeometry x="670" y="310" width="80" height="80" as="geometry" />
        </mxCell>
        <mxCell id="Zh4O3iviIswpcKdQZgxh-58" value="&amp;nbsp;Recommendation DB&lt;br&gt;" style="image;html=1;image=img/lib/clip_art/computers/Database_128x128.png" parent="1" vertex="1">
          <mxGeometry x="450" y="165" width="80" height="80" as="geometry" />
        </mxCell>
        <mxCell id="Zh4O3iviIswpcKdQZgxh-59" value="Cart DB" style="image;html=1;image=img/lib/clip_art/computers/Database_128x128.png" parent="1" vertex="1">
          <mxGeometry x="395" y="-110" width="80" height="80" as="geometry" />
        </mxCell>
        <mxCell id="Zh4O3iviIswpcKdQZgxh-60" style="edgeStyle=none;html=1;entryX=0;entryY=0.5;entryDx=0;entryDy=0;entryPerimeter=0;" parent="1" source="Zh4O3iviIswpcKdQZgxh-61" target="Zh4O3iviIswpcKdQZgxh-69" edge="1">
          <mxGeometry relative="1" as="geometry" />
        </mxCell>
        <mxCell id="Zh4O3iviIswpcKdQZgxh-61" value="Order DB" style="image;html=1;image=img/lib/clip_art/computers/Database_128x128.png" parent="1" vertex="1">
          <mxGeometry x="630" y="-170" width="80" height="80" as="geometry" />
        </mxCell>
        <mxCell id="Zh4O3iviIswpcKdQZgxh-62" value="Product Review DB" style="image;html=1;image=img/lib/clip_art/computers/Database_128x128.png" parent="1" vertex="1">
          <mxGeometry x="20" y="-300" width="60" height="80" as="geometry" />
        </mxCell>
        <mxCell id="Zh4O3iviIswpcKdQZgxh-63" style="edgeStyle=none;html=1;entryX=0;entryY=0.5;entryDx=0;entryDy=0;" parent="1" source="Zh4O3iviIswpcKdQZgxh-64" target="Zh4O3iviIswpcKdQZgxh-65" edge="1">
          <mxGeometry relative="1" as="geometry" />
        </mxCell>
        <mxCell id="Zh4O3iviIswpcKdQZgxh-64" value="Archive" style="outlineConnect=0;dashed=0;verticalLabelPosition=bottom;verticalAlign=top;align=center;html=1;shape=mxgraph.aws3.archive;fillColor=#E05243;gradientColor=none;" parent="1" vertex="1">
          <mxGeometry x="893" y="330" width="57" height="47.5" as="geometry" />
        </mxCell>
        <mxCell id="Zh4O3iviIswpcKdQZgxh-65" value="Search History Database" style="image;html=1;image=img/lib/clip_art/computers/Database_128x128.png" parent="1" vertex="1">
          <mxGeometry x="1040" y="310" width="80" height="80" as="geometry" />
        </mxCell>
        <mxCell id="Zh4O3iviIswpcKdQZgxh-66" value="Search History Database" style="image;html=1;image=img/lib/clip_art/computers/Database_128x128.png" parent="1" vertex="1">
          <mxGeometry x="1050" y="320" width="80" height="80" as="geometry" />
        </mxCell>
        <mxCell id="Zh4O3iviIswpcKdQZgxh-67" value="&lt;br&gt;&lt;br&gt;Can have retention policy like after a year to delete it" style="image;html=1;image=img/lib/clip_art/computers/Database_128x128.png" parent="1" vertex="1">
          <mxGeometry x="1060" y="330" width="80" height="80" as="geometry" />
        </mxCell>
        <mxCell id="Zh4O3iviIswpcKdQZgxh-68" value="" style="edgeStyle=none;html=1;" parent="1" source="Zh4O3iviIswpcKdQZgxh-69" target="Zh4O3iviIswpcKdQZgxh-71" edge="1">
          <mxGeometry relative="1" as="geometry" />
        </mxCell>
        <mxCell id="Zh4O3iviIswpcKdQZgxh-69" value="Archive" style="outlineConnect=0;dashed=0;verticalLabelPosition=bottom;verticalAlign=top;align=center;html=1;shape=mxgraph.aws3.archive;fillColor=#E05243;gradientColor=none;" parent="1" vertex="1">
          <mxGeometry x="870" y="-153.75" width="57" height="47.5" as="geometry" />
        </mxCell>
        <mxCell id="Zh4O3iviIswpcKdQZgxh-70" value="Order History &lt;br&gt;DB" style="image;html=1;image=img/lib/clip_art/computers/Database_128x128.png" parent="1" vertex="1">
          <mxGeometry x="990" y="-165" width="80" height="80" as="geometry" />
        </mxCell>
        <mxCell id="Zh4O3iviIswpcKdQZgxh-71" value="Order History &lt;br&gt;DB" style="image;html=1;image=img/lib/clip_art/computers/Database_128x128.png" parent="1" vertex="1">
          <mxGeometry x="980" y="-170" width="80" height="80" as="geometry" />
        </mxCell>
        <mxCell id="Zh4O3iviIswpcKdQZgxh-72" value="Product Inventory DB&lt;br&gt;&lt;br&gt;Before placing the order it will the inventory db" style="image;html=1;image=img/lib/clip_art/computers/Database_128x128.png" parent="1" vertex="1">
          <mxGeometry x="881.5" y="35" width="80" height="80" as="geometry" />
        </mxCell>
        <mxCell id="Zh4O3iviIswpcKdQZgxh-73" value="" style="edgeStyle=none;html=1;endArrow=none;" parent="1" source="Zh4O3iviIswpcKdQZgxh-18" target="Zh4O3iviIswpcKdQZgxh-74" edge="1">
          <mxGeometry relative="1" as="geometry">
            <mxPoint x="70" y="168.82978723404267" as="sourcePoint" />
            <mxPoint x="440" y="192.44680851063822" as="targetPoint" />
          </mxGeometry>
        </mxCell>
        <mxCell id="Zh4O3iviIswpcKdQZgxh-74" value="Cache node" style="sketch=0;outlineConnect=0;fontColor=#232F3E;gradientColor=none;strokeColor=#232F3E;fillColor=#ffffff;dashed=0;verticalLabelPosition=bottom;verticalAlign=top;align=center;html=1;fontSize=12;fontStyle=0;aspect=fixed;shape=mxgraph.aws4.resourceIcon;resIcon=mxgraph.aws4.cache_node;" parent="1" vertex="1">
          <mxGeometry x="214" y="155" width="60" height="60" as="geometry" />
        </mxCell>
        <mxCell id="Zh4O3iviIswpcKdQZgxh-75" value="" style="edgeStyle=none;html=1;endArrow=none;" parent="1" source="Zh4O3iviIswpcKdQZgxh-8" target="Zh4O3iviIswpcKdQZgxh-76" edge="1">
          <mxGeometry relative="1" as="geometry">
            <mxPoint x="670" y="325.840909090909" as="targetPoint" />
            <mxPoint x="194" y="435.151395848246" as="sourcePoint" />
          </mxGeometry>
        </mxCell>
        <mxCell id="Zh4O3iviIswpcKdQZgxh-76" value="Message queue&lt;br&gt;&lt;br&gt;to decouple all the services and&amp;nbsp; the dependencies&amp;nbsp;" style="verticalLabelPosition=bottom;html=1;verticalAlign=top;align=center;strokeColor=none;fillColor=#00BEF2;shape=mxgraph.azure.storage_queue;" parent="1" vertex="1">
          <mxGeometry x="440" y="355" width="50" height="45" as="geometry" />
        </mxCell>
        <mxCell id="Zh4O3iviIswpcKdQZgxh-77" value="" style="edgeStyle=none;html=1;entryX=0.5;entryY=1;entryDx=0;entryDy=0;entryPerimeter=0;endArrow=none;" parent="1" source="Zh4O3iviIswpcKdQZgxh-4" target="Zh4O3iviIswpcKdQZgxh-78" edge="1">
          <mxGeometry relative="1" as="geometry">
            <mxPoint x="-176" y="326.53669724770634" as="sourcePoint" />
            <mxPoint x="10" y="200" as="targetPoint" />
            <Array as="points">
              <mxPoint x="10" y="350" />
            </Array>
          </mxGeometry>
        </mxCell>
        <mxCell id="Zh4O3iviIswpcKdQZgxh-78" value="Message queue&lt;br&gt;&lt;br&gt;to decouple all the services&lt;br&gt;&amp;nbsp;and&amp;nbsp; the dependencies&amp;nbsp;" style="verticalLabelPosition=bottom;html=1;verticalAlign=top;align=center;strokeColor=none;fillColor=#00BEF2;shape=mxgraph.azure.storage_queue;" parent="1" vertex="1">
          <mxGeometry x="-15" y="245" width="50" height="45" as="geometry" />
        </mxCell>
        <mxCell id="Zh4O3iviIswpcKdQZgxh-79" value="Message queue&lt;br&gt;&lt;br&gt;to decouple all the services&lt;br&gt;&amp;nbsp;and&amp;nbsp; the dependencies&amp;nbsp;" style="verticalLabelPosition=bottom;html=1;verticalAlign=top;align=center;strokeColor=none;fillColor=#00BEF2;shape=mxgraph.azure.storage_queue;" parent="1" vertex="1">
          <mxGeometry x="345" y="140" width="50" height="45" as="geometry" />
        </mxCell>
        <mxCell id="Zh4O3iviIswpcKdQZgxh-80" value="" style="edgeStyle=none;html=1;entryX=0.75;entryY=0;entryDx=0;entryDy=0;entryPerimeter=0;endArrow=none;" parent="1" source="Zh4O3iviIswpcKdQZgxh-32" target="Zh4O3iviIswpcKdQZgxh-81" edge="1">
          <mxGeometry relative="1" as="geometry">
            <mxPoint x="40" y="-230" as="sourcePoint" />
            <mxPoint x="40" y="130" as="targetPoint" />
          </mxGeometry>
        </mxCell>
        <mxCell id="Zh4O3iviIswpcKdQZgxh-81" value="Cache node" style="sketch=0;outlineConnect=0;fontColor=#232F3E;gradientColor=none;strokeColor=#232F3E;fillColor=#ffffff;dashed=0;verticalLabelPosition=bottom;verticalAlign=top;align=center;html=1;fontSize=12;fontStyle=0;aspect=fixed;shape=mxgraph.aws4.resourceIcon;resIcon=mxgraph.aws4.cache_node;" parent="1" vertex="1">
          <mxGeometry x="10" y="-170" width="60" height="60" as="geometry" />
        </mxCell>
        <mxCell id="Zh4O3iviIswpcKdQZgxh-82" value="Cache node" style="sketch=0;outlineConnect=0;fontColor=#232F3E;gradientColor=none;strokeColor=#232F3E;fillColor=#ffffff;dashed=0;verticalLabelPosition=bottom;verticalAlign=top;align=center;html=1;fontSize=12;fontStyle=0;aspect=fixed;shape=mxgraph.aws4.resourceIcon;resIcon=mxgraph.aws4.cache_node;" parent="1" vertex="1">
          <mxGeometry x="490" y="-166.25" width="60" height="60" as="geometry" />
        </mxCell>
      </root>
    </mxGraphModel>
  </diagram>
</mxfile>
